<svg width="30" height="27" viewBox="0 0 30 27" fill="none" xmlns="http://www.w3.org/2000/svg">
<path d="M7.39048 21.7373C7.00001 21.7373 6.6727 21.6112 6.40857 21.3591C6.14443 21.1069 6.01236 20.7944 6.01236 20.4216V18.1907H25.2908L25.7852 18.6627V5.20551H28.1219C28.5124 5.20551 28.8397 5.33159 29.1038 5.58376C29.3679 5.83593 29.5 6.1484 29.5 6.52117V27L23.9876 21.7373H7.39048ZM0.5 20.4788V1.3157C0.5 0.94291 0.632067 0.63043 0.896202 0.378258C1.16034 0.126087 1.48764 0 1.87812 0H21.2914C21.6818 0 22.0091 0.126087 22.2733 0.378258C22.5374 0.63043 22.6695 0.94291 22.6695 1.3157V13.9005C22.6695 14.2732 22.5374 14.5857 22.2733 14.8379C22.0091 15.0901 21.6818 15.2161 21.2914 15.2161H6.01236L0.5 20.4788ZM20.3327 12.9852V2.23091H2.83675V14.015L3.91533 12.9852H20.3327Z" fill="#074261"/>
</svg>
