<svg width="893" height="148" viewBox="0 0 893 148" fill="none" xmlns="http://www.w3.org/2000/svg">
<path d="M11.3203 124.714C10.3843 122.749 9.9972 120.771 10.1591 118.78C10.3402 116.78 11.0042 114.975 12.1513 113.365C13.3083 111.726 14.8209 110.462 16.689 109.572C18.8268 108.553 20.9761 108.179 23.1371 108.449C25.3081 108.691 27.228 109.595 28.8968 111.163L24.9391 113.049C23.9144 112.238 22.816 111.792 21.6438 111.713C20.4716 111.633 19.2788 111.882 18.0655 112.461C16.7367 113.094 15.6945 113.957 14.939 115.049C14.1835 116.142 13.7734 117.389 13.7086 118.79C13.6631 120.183 13.9936 121.62 14.7002 123.103C15.4068 124.586 16.3151 125.748 17.4251 126.59C18.5544 127.423 19.7858 127.899 21.1195 128.02C22.4439 128.122 23.7706 127.856 25.0994 127.222C26.3127 126.644 27.2577 125.875 27.9344 124.915C28.611 123.954 28.957 122.82 28.9722 121.513L32.9299 119.628C33.0965 121.911 32.5898 123.972 31.4098 125.811C30.2491 127.64 28.5999 129.064 26.4622 130.082C24.5748 130.982 22.6447 131.37 20.6718 131.246C18.6897 131.104 16.8648 130.473 15.197 129.353C13.5486 128.225 12.2563 126.678 11.3203 124.714Z" fill="#F5F5F5"/>
<path d="M41.5395 106.309C41.661 105.273 42.021 104.353 42.6195 103.548C43.2288 102.715 44.0885 102.051 45.1988 101.555L46.7388 105.003L45.8915 105.381C44.5865 105.964 43.741 106.739 43.3551 107.706C42.9887 108.664 43.1709 109.961 43.9018 111.597L47.6866 120.07L44.3558 121.558L37.1646 105.459L40.4954 103.971L41.5395 106.309Z" fill="#F5F5F5"/>
<path d="M54.6707 95.2225C54.0625 95.4824 53.4645 95.4943 52.8765 95.2583C52.2885 95.0223 51.8646 94.6002 51.6048 93.9921C51.345 93.3839 51.3331 92.7858 51.5691 92.1978C51.8051 91.6099 52.2271 91.186 52.8353 90.9262C53.4239 90.6747 54.0121 90.667 54.6001 90.903C55.1881 91.139 55.612 91.5611 55.8718 92.1692C56.1316 92.7774 56.1435 93.3755 55.9075 93.9634C55.6715 94.5514 55.2593 94.9711 54.6707 95.2225ZM57.2363 96.6668L64.1631 112.881L60.8083 114.314L53.8816 98.0999L57.2363 96.6668Z" fill="#F5F5F5"/>
<path d="M85.1958 94.2386C85.4434 94.8518 85.6275 95.4217 85.748 95.9482L73.256 100.992C73.8821 102.258 74.7901 103.111 75.98 103.551C77.1699 103.99 78.3978 103.955 79.6638 103.443C81.4837 102.709 82.462 101.428 82.5987 99.6011L86.2484 98.1274C86.3609 99.8305 85.96 101.43 85.0459 102.927C84.1435 104.395 82.7329 105.517 80.8141 106.292C79.2513 106.923 77.707 107.144 76.1812 106.955C74.6672 106.738 73.2986 106.14 72.0752 105.162C70.8637 104.156 69.9184 102.812 69.2395 101.13C68.5605 99.4489 68.3017 97.8393 68.4631 96.3017C68.6362 94.7364 69.1963 93.3599 70.1432 92.1723C71.1098 90.9767 72.3943 90.0554 73.9966 89.4084C75.5396 88.7854 77.0502 88.5666 78.5284 88.7519C80.0067 88.9372 81.3297 89.5073 82.4975 90.4622C83.6573 91.3973 84.5567 92.6561 85.1958 94.2386ZM81.2334 94.5962C80.7104 93.3579 79.862 92.5387 78.688 92.1385C77.5141 91.7382 76.2843 91.7977 74.9985 92.3169C73.8314 92.7882 72.9842 93.5674 72.4569 94.6546C71.9216 95.722 71.8304 96.9206 72.1834 98.2505L81.2334 94.5962Z" fill="#F5F5F5"/>
<path d="M105.837 86.8188C105.226 85.1116 105.031 83.493 105.254 81.9631C105.489 80.4059 106.094 79.0564 107.067 77.9148C108.041 76.7731 109.321 75.9182 110.907 75.35C112.916 74.6308 114.745 74.5195 116.396 75.0161C118.06 75.4854 119.439 76.5211 120.534 78.1231L116.828 79.45C116.232 78.7344 115.52 78.2643 114.692 78.0397C113.863 77.8151 112.947 77.8826 111.943 78.2422C110.537 78.7456 109.592 79.6505 109.108 80.9568C108.637 82.2358 108.722 83.7691 109.362 85.5566C110.002 87.3441 110.913 88.5925 112.096 89.3019C113.3 90.0041 114.604 90.1034 116.01 89.6C117.998 88.888 119.001 87.5432 119.018 85.5657L122.724 84.2388C122.846 86.0985 122.424 87.7678 121.458 89.2467C120.485 90.7055 119.014 91.7873 117.046 92.4921C115.459 93.0603 113.927 93.2123 112.45 92.948C110.966 92.6637 109.643 92.0047 108.479 90.971C107.329 89.91 106.448 88.526 105.837 86.8188Z" fill="#F5F5F5"/>
<path d="M140.857 84.306C139.276 84.8259 137.731 84.9412 136.221 84.6518C134.704 84.3422 133.367 83.6589 132.211 82.6018C131.048 81.5246 130.184 80.1246 129.617 78.4021C129.057 76.6998 128.936 75.0667 129.252 73.5029C129.569 71.939 130.259 70.5891 131.323 69.4532C132.386 68.3174 133.719 67.4861 135.32 66.9596C136.921 66.433 138.486 66.3111 140.016 66.5938C141.547 66.8765 142.903 67.5531 144.086 68.6238C145.27 69.6944 146.141 71.0808 146.701 72.7831C147.261 74.4854 147.372 76.1218 147.036 77.6923C146.699 79.2629 145.981 80.6329 144.884 81.8024C143.8 82.9449 142.458 83.7794 140.857 84.306ZM139.867 81.2966C140.758 81.0033 141.519 80.5173 142.149 79.8384C142.8 79.1529 143.228 78.3046 143.435 77.2935C143.641 76.2823 143.544 75.1688 143.144 73.9529C142.744 72.737 142.175 71.7902 141.435 71.1127C140.689 70.4148 139.861 69.9798 138.951 69.8075C138.041 69.6352 137.14 69.6957 136.249 69.989C135.357 70.2823 134.596 70.7683 133.966 71.4472C133.356 72.1194 132.968 72.9544 132.802 73.9521C132.63 74.9297 132.743 76.0264 133.143 77.2423C133.737 79.0459 134.653 80.2942 135.891 80.9873C137.143 81.6534 138.468 81.7565 139.867 81.2966Z" fill="#F5F5F5"/>
<path d="M161.582 58.714C162.91 58.3159 164.178 58.2366 165.386 58.4761C166.614 58.7094 167.686 59.2788 168.604 60.1843C169.521 61.0898 170.209 62.3088 170.668 63.8415L173.654 73.8038L170.19 74.8418L167.361 65.4006C166.907 63.8884 166.183 62.8471 165.188 62.2767C164.187 61.6858 163.033 61.5864 161.725 61.9783C160.417 62.3702 159.497 63.0913 158.966 64.1414C158.449 65.165 158.416 66.4329 158.87 67.9451L161.699 77.3863L158.204 78.4335L153.143 61.5436L156.637 60.4964L157.216 62.4275C157.58 61.5612 158.143 60.8023 158.906 60.1507C159.689 59.493 160.581 59.0141 161.582 58.714Z" fill="#F5F5F5"/>
<path d="M196.287 57.9505C196.46 58.5888 196.575 59.1764 196.633 59.7135L183.631 63.2427C184.103 64.5736 184.904 65.5278 186.033 66.1055C187.163 66.6831 188.386 66.7931 189.704 66.4354C191.598 65.9213 192.721 64.7654 193.073 62.9677L196.872 61.9366C196.782 63.641 196.194 65.1821 195.109 66.5597C194.039 67.9112 192.506 68.858 190.508 69.4001C188.882 69.8416 187.322 69.8781 185.83 69.5096C184.352 69.1149 183.064 68.3594 181.965 67.2429C180.881 66.1003 180.102 64.6539 179.627 62.9039C179.152 61.1539 179.085 59.5251 179.428 58.0174C179.785 56.4836 180.504 55.1831 181.585 54.116C182.686 53.0434 184.071 52.2807 185.739 51.828C187.344 51.3921 188.87 51.3537 190.316 51.7128C191.762 52.0719 193.008 52.7947 194.055 53.8811C195.096 54.947 195.84 56.3035 196.287 57.9505ZM192.31 57.8363C191.937 56.5449 191.192 55.6309 190.074 55.0944C188.955 54.558 187.727 54.4714 186.389 54.8346C185.174 55.1644 184.241 55.8378 183.588 56.8549C182.93 57.8513 182.698 59.0308 182.891 60.3931L192.31 57.8363Z" fill="#F5F5F5"/>
<path d="M212.442 54.227L220.108 61.5335L216.1 62.5208L210.971 57.6213L208.922 64.2888L205.225 65.1996L208.681 55.4169L201.008 48.0794L205.016 47.092L210.145 51.9915L212.193 45.324L215.891 44.4132L212.442 54.227Z" fill="#F5F5F5"/>
<path d="M235.154 58.4034C233.529 58.7624 231.98 58.7224 230.506 58.2833C229.028 57.8233 227.767 57.0096 226.722 55.8422C225.673 54.6539 224.953 53.1744 224.562 51.4038C224.175 49.654 224.218 48.0169 224.689 46.4926C225.161 44.9683 225.983 43.6943 227.155 42.6707C228.327 41.647 229.736 40.9533 231.381 40.5897C233.027 40.2261 234.597 40.2615 236.091 40.696C237.585 41.1305 238.868 41.9396 239.937 43.1233C241.007 44.307 241.736 45.7738 242.122 47.5235C242.509 49.2733 242.456 50.9127 241.964 52.4416C241.471 53.9705 240.621 55.2618 239.411 56.3155C238.219 57.3438 236.799 58.0397 235.154 58.4034ZM234.47 55.31C235.387 55.1075 236.192 54.7 236.887 54.0877C237.603 53.4707 238.114 52.6695 238.421 51.6842C238.727 50.6988 238.743 49.5812 238.466 48.3314C238.19 47.0815 237.718 46.0825 237.05 45.3343C236.378 44.5652 235.598 44.0495 234.709 43.7869C233.821 43.5244 232.919 43.4944 232.002 43.6969C231.086 43.8994 230.28 44.3069 229.585 44.9192C228.911 45.527 228.442 46.3189 228.177 47.2951C227.907 48.2504 227.91 49.353 228.186 50.6029C228.596 52.4568 229.382 53.7906 230.545 54.6042C231.725 55.3923 233.033 55.6276 234.47 55.31ZM225.895 39.9341C225.794 38.6891 225.99 37.6955 226.481 36.9533C226.968 36.1903 227.68 35.7052 228.618 35.4981C229.013 35.4106 229.371 35.3972 229.69 35.4577C230.009 35.5183 230.405 35.6275 230.877 35.7854C231.235 35.9247 231.53 36.0234 231.762 36.0815C232.014 36.135 232.275 36.1319 232.546 36.072C232.9 35.9938 233.169 35.8252 233.352 35.5662C233.551 35.2819 233.634 34.914 233.6 34.4628L235.599 34.0209C235.7 35.2659 235.506 36.2699 235.02 37.0329C234.528 37.7751 233.814 38.2498 232.876 38.4569C232.481 38.5444 232.113 38.5601 231.773 38.5042C231.428 38.4274 231.04 38.3055 230.61 38.1383C230.185 37.9921 229.858 37.9003 229.632 37.863C229.421 37.8002 229.191 37.7965 228.941 37.8517C228.587 37.93 228.31 38.1113 228.111 38.3957C227.932 38.6754 227.86 39.041 227.894 39.4922L225.895 39.9341Z" fill="#F5F5F5"/>
<path d="M267.11 42.1483C267.235 42.7976 267.307 43.3921 267.325 43.932L254.099 46.4944C254.471 47.8565 255.199 48.8671 256.283 49.5263C257.367 50.1855 258.579 50.3852 259.92 50.1255C261.847 49.7522 263.052 48.6821 263.535 46.9153L267.399 46.1666C267.184 47.8598 266.485 49.3534 265.301 50.6475C264.135 51.9165 262.536 52.7479 260.504 53.1415C258.849 53.462 257.291 53.3836 255.83 52.9062C254.385 52.4038 253.156 51.5555 252.143 50.3611C251.146 49.1418 250.475 47.642 250.13 45.8618C249.785 44.0816 249.839 42.4523 250.291 40.9739C250.76 39.4705 251.573 38.2265 252.73 37.2419C253.907 36.2532 255.344 35.5946 257.041 35.2659C258.674 34.9494 260.199 35.0234 261.614 35.488C263.03 35.9525 264.22 36.7651 265.183 37.9256C266.143 39.0653 266.785 40.4728 267.11 42.1483ZM263.152 41.7417C262.875 40.4263 262.199 39.4599 261.124 38.8426C260.048 38.2253 258.829 38.0485 257.468 38.3122C256.232 38.5516 255.252 39.1545 254.526 40.1208C253.797 41.0661 253.478 42.2252 253.57 43.5981L263.152 41.7417Z" fill="#F5F5F5"/>
<path d="M283.897 48.9039C282.53 49.1341 281.259 49.0994 280.083 48.7998C278.925 48.4755 277.96 47.9458 277.187 47.2106C276.411 46.4543 275.913 45.5538 275.694 44.509L279.417 43.8821C279.605 44.6077 280.056 45.1699 280.772 45.5685C281.506 45.9426 282.357 46.0481 283.324 45.8852C284.334 45.7151 285.081 45.3948 285.564 44.924C286.064 44.4286 286.263 43.8759 286.161 43.2658C286.051 42.6137 285.654 42.183 284.97 41.9737C284.306 41.7608 283.27 41.5784 281.86 41.4265C280.495 41.2885 279.374 41.1202 278.497 40.9218C277.62 40.7233 276.818 40.3283 276.091 39.7368C275.385 39.1418 274.936 38.2763 274.745 37.1403C274.589 36.2146 274.721 35.3271 275.141 34.4777C275.556 33.6072 276.232 32.866 277.167 32.2542C278.124 31.6389 279.265 31.2196 280.59 30.9965C282.568 30.6635 284.241 30.901 285.61 31.7088C286.997 32.4921 287.877 33.7392 288.252 35.4501L284.655 36.0558C284.46 35.2881 284.04 34.7206 283.394 34.3534C282.749 33.9863 281.942 33.8841 280.974 34.0471C280.027 34.2065 279.332 34.5075 278.887 34.9501C278.442 35.3928 278.27 35.9086 278.369 36.4977C278.447 36.9605 278.681 37.3213 279.07 37.5802C279.46 37.8391 279.913 38.0225 280.428 38.1304C280.941 38.2172 281.693 38.3176 282.686 38.4317C284.005 38.5558 285.094 38.7293 285.954 38.9524C286.831 39.1508 287.62 39.537 288.323 40.111C289.025 40.6851 289.481 41.5278 289.69 42.6392C289.856 43.628 289.731 44.5576 289.316 45.428C288.9 46.2985 288.224 47.0397 287.289 47.6515C286.374 48.2597 285.244 48.6772 283.897 48.9039Z" fill="#F5F5F5"/>
<path d="M311.708 35.38C311.477 33.5815 311.634 31.9589 312.179 30.5122C312.743 29.0416 313.622 27.853 314.818 26.9464C316.013 26.0398 317.446 25.479 319.118 25.264C321.234 24.9919 323.045 25.2752 324.551 26.1139C326.075 26.9287 327.201 28.2359 327.927 30.0353L324.023 30.5374C323.594 29.7107 322.999 29.0989 322.238 28.7021C321.477 28.3052 320.568 28.1749 319.51 28.3109C318.029 28.5015 316.912 29.1828 316.159 30.3551C315.425 31.5035 315.179 33.0192 315.421 34.9024C315.664 36.7855 316.287 38.2003 317.29 39.1467C318.315 40.0903 319.568 40.4669 321.049 40.2764C323.144 40.0069 324.411 38.9082 324.852 36.9803L328.755 36.4782C328.476 38.3209 327.706 39.861 326.446 41.0986C325.183 42.315 323.515 43.0565 321.441 43.3233C319.769 43.5383 318.241 43.3585 316.855 42.784C315.466 42.1882 314.314 41.2609 313.4 40.002C312.503 38.7192 311.939 37.1786 311.708 35.38Z" fill="#F5F5F5"/>
<path d="M346.453 40.429C344.798 40.5982 343.264 40.3797 341.851 39.7735C340.436 39.1461 339.277 38.1923 338.374 36.9121C337.469 35.6107 336.924 34.058 336.74 32.2541C336.558 30.4713 336.789 28.8501 337.433 27.3904C338.077 25.9307 339.041 24.76 340.323 23.8784C341.605 22.9969 343.085 22.4704 344.761 22.2991C346.438 22.1278 347.993 22.3441 349.428 22.9481C350.862 23.5521 352.042 24.5038 352.968 25.803C353.894 27.1023 354.449 28.6432 354.631 30.426C354.813 32.2087 354.571 33.831 353.906 35.2929C353.24 36.7548 352.246 37.9393 350.923 38.8464C349.62 39.7302 348.13 40.2577 346.453 40.429ZM346.131 37.2774C347.065 37.182 347.912 36.8703 348.673 36.3422C349.455 35.8119 350.056 35.0751 350.474 34.1317C350.892 33.1883 351.036 32.0799 350.906 30.8065C350.776 29.5332 350.422 28.4864 349.845 27.6661C349.266 26.8246 348.551 26.2222 347.699 25.859C346.847 25.4957 345.954 25.3618 345.02 25.4572C344.086 25.5526 343.239 25.8643 342.478 26.3924C341.738 26.9183 341.18 27.6508 340.804 28.5899C340.426 29.5077 340.302 30.6034 340.433 31.8767C340.626 33.7656 341.253 35.1811 342.314 36.1235C343.394 37.0424 344.667 37.4271 346.131 37.2774Z" fill="#F5F5F5"/>
<path d="M384.708 18.9951C386.091 18.9001 387.346 19.1027 388.471 19.6028C389.617 20.1014 390.537 20.8935 391.232 21.9792C391.948 23.0633 392.361 24.4035 392.47 25.9998L393.183 36.3753L389.575 36.6231L388.9 26.7902C388.792 25.2153 388.315 24.0398 387.471 23.2638C386.625 22.4666 385.521 22.1147 384.159 22.2083C382.797 22.3018 381.741 22.802 380.99 23.7089C380.26 24.593 379.949 25.8226 380.057 27.3975L380.732 37.2304L377.125 37.4781L376.449 27.6453C376.341 26.0703 375.865 24.8949 375.02 24.1189C374.174 23.3216 373.07 22.9698 371.708 23.0633C370.346 23.1569 369.29 23.6571 368.54 24.564C367.809 25.4481 367.498 26.6776 367.606 28.2526L368.281 38.0854L364.642 38.3354L363.434 20.7448L367.073 20.4949L367.211 22.5061C367.758 21.7416 368.475 21.1257 369.362 20.6584C370.249 20.1912 371.214 19.9218 372.257 19.8502C373.662 19.7537 374.938 19.9654 376.086 20.4853C377.234 21.0053 378.144 21.8088 378.817 22.8959C379.276 21.7952 380.049 20.8975 381.134 20.2028C382.219 19.4868 383.41 19.0843 384.708 18.9951Z" fill="#F5F5F5"/>
<path d="M420.831 20.3113C421.433 19.4881 422.262 18.7884 423.317 18.212C424.372 17.6356 425.571 17.3337 426.915 17.3061C428.451 17.2747 429.856 17.63 431.13 18.3721C432.425 19.0924 433.449 20.1277 434.202 21.4779C434.955 22.8281 435.35 24.3883 435.386 26.1586C435.422 27.9289 435.092 29.5253 434.396 30.9479C433.699 32.3491 432.719 33.4574 431.455 34.2728C430.213 35.0664 428.823 35.4789 427.288 35.5103C425.944 35.5378 424.744 35.2957 423.688 34.7838C422.632 34.2507 421.764 33.5856 421.087 32.7887L421.311 43.7304L417.663 43.805L417.131 17.7945L420.778 17.7198L420.831 20.3113ZM431.675 26.2346C431.65 25.0189 431.372 23.979 430.843 23.115C430.334 22.2292 429.659 21.5709 428.818 21.14C427.998 20.6874 427.118 20.4706 426.18 20.4899C425.263 20.5086 424.393 20.7611 423.571 21.2474C422.77 21.7332 422.123 22.4293 421.629 23.3356C421.157 24.2414 420.933 25.3022 420.958 26.518C420.983 27.7337 421.25 28.7952 421.76 29.7023C422.29 30.5876 422.965 31.2566 423.785 31.7092C424.627 32.1614 425.506 32.3781 426.423 32.3594C427.361 32.3402 428.231 32.0876 429.032 31.6018C429.854 31.0942 430.501 30.3768 430.972 29.4496C431.465 28.522 431.7 27.4503 431.675 26.2346Z" fill="#F5F5F5"/>
<path d="M460.667 25.8655C460.663 26.5268 460.617 27.1239 460.528 27.6567L447.056 27.5739C447.154 28.9826 447.67 30.1164 448.604 30.9755C449.537 31.8346 450.686 32.2683 452.052 32.2767C454.014 32.2887 455.406 31.4759 456.227 29.8383L460.163 29.8625C459.619 31.4805 458.64 32.8078 457.226 33.8445C455.833 34.86 454.102 35.3613 452.033 35.3486C450.347 35.3383 448.835 34.9557 447.496 34.2008C446.178 33.4247 445.139 32.3516 444.379 30.9816C443.641 29.5903 443.278 27.9881 443.289 26.1748C443.3 24.3615 443.672 22.7744 444.406 21.4135C445.161 20.0315 446.203 18.9712 447.53 18.2327C448.878 17.4943 450.417 17.1304 452.145 17.141C453.809 17.1512 455.289 17.523 456.586 18.2563C457.883 18.9896 458.89 20.0198 459.607 21.3469C460.324 22.6526 460.678 24.1588 460.667 25.8655ZM456.866 24.6901C456.853 23.346 456.38 22.2658 455.446 21.4493C454.512 20.6329 453.352 20.2205 451.966 20.2119C450.707 20.2042 449.627 20.6029 448.726 21.4081C447.825 22.1919 447.286 23.2659 447.106 24.6302L456.866 24.6901Z" fill="#F5F5F5"/>
<path d="M475.803 35.7839C474.417 35.7414 473.178 35.4578 472.084 34.9334C471.012 34.3882 470.169 33.6793 469.556 32.8068C468.943 31.9129 468.632 30.9322 468.622 29.8647L472.396 29.9806C472.437 30.7289 472.77 31.3687 473.394 31.9001C474.039 32.4109 474.853 32.6813 475.834 32.7114C476.857 32.7429 477.652 32.5752 478.218 32.2084C478.807 31.8209 479.11 31.318 479.129 30.6996C479.149 30.0386 478.845 29.5383 478.215 29.1989C477.606 28.86 476.625 28.4777 475.273 28.052C473.962 27.6489 472.896 27.264 472.074 26.8973C471.253 26.5306 470.544 25.9859 469.948 25.2632C469.372 24.5412 469.102 23.6045 469.138 22.453C469.166 21.5148 469.47 20.6704 470.048 19.9198C470.626 19.1478 471.434 18.5537 472.472 18.1373C473.53 17.7216 474.731 17.5344 476.075 17.5757C478.079 17.6372 479.673 18.1984 480.857 19.2593C482.063 20.2995 482.682 21.6951 482.713 23.4462L479.067 23.3343C479.027 22.5433 478.727 21.9045 478.166 21.4177C477.604 20.9309 476.833 20.6724 475.852 20.6423C474.893 20.6128 474.151 20.7715 473.629 21.1183C473.106 21.465 472.835 21.937 472.817 22.534C472.802 23.0031 472.961 23.4028 473.292 23.7332C473.624 24.0635 474.031 24.3321 474.516 24.5391C475.001 24.7248 475.719 24.9709 476.67 25.2776C477.939 25.6581 478.973 26.042 479.772 26.4294C480.594 26.7961 481.292 27.3298 481.868 28.0305C482.444 28.7311 482.726 29.6469 482.712 30.7777C482.682 31.7799 482.377 32.6669 481.798 33.4389C481.22 34.2108 480.412 34.8049 479.374 35.2213C478.358 35.6383 477.168 35.8258 475.803 35.7839Z" fill="#F5F5F5"/>
<path d="M498.742 36.754C497.358 36.6788 496.125 36.3661 495.044 35.8161C493.985 35.2458 493.159 34.5173 492.566 33.6306C491.975 32.7225 491.687 31.7347 491.702 30.6673L495.472 30.872C495.496 31.6211 495.813 32.2686 496.424 32.8145C497.058 33.3403 497.865 33.6298 498.845 33.683C499.867 33.7385 500.666 33.5896 501.241 33.2362C501.838 32.8627 502.153 32.3671 502.187 31.7493C502.222 31.089 501.929 30.5817 501.308 30.2274C500.707 29.8744 499.736 29.4691 498.393 29.0117C497.092 28.5778 496.036 28.1679 495.223 27.782C494.411 27.3961 493.715 26.8348 493.136 26.0983C492.577 25.363 492.329 24.4202 492.392 23.2699C492.443 22.3326 492.766 21.4955 493.361 20.7587C493.958 20.0006 494.78 19.4257 495.827 19.0338C496.895 18.6432 498.1 18.4843 499.442 18.5571C501.444 18.6658 503.025 19.2644 504.183 20.3528C505.364 21.4211 505.95 22.8309 505.941 24.5823L502.298 24.3845C502.277 23.5929 501.991 22.9471 501.442 22.4473C500.892 21.9474 500.127 21.6709 499.147 21.6177C498.189 21.5656 497.444 21.7068 496.913 22.0412C496.382 22.3755 496.101 22.8409 496.068 23.4374C496.043 23.906 496.192 24.3094 496.515 24.6474C496.839 24.9855 497.24 25.2636 497.72 25.4819C498.2 25.679 498.913 25.942 499.856 26.2709C501.116 26.6812 502.14 27.0893 502.93 27.4954C503.743 27.8813 504.428 28.4313 504.988 29.1454C505.547 29.8594 505.807 30.7815 505.767 31.9117C505.713 32.9129 505.387 33.7925 504.79 34.5506C504.194 35.3087 503.372 35.8837 502.325 36.2755C501.3 36.6685 500.105 36.828 498.742 36.754Z" fill="#F5F5F5"/>
<path d="M522.894 38.3609C521.236 38.229 519.766 37.7377 518.485 36.8869C517.206 36.0148 516.238 34.8678 515.581 33.446C514.925 32.0028 514.669 30.3774 514.813 28.5698C514.955 26.7834 515.474 25.2303 516.371 23.9106C517.267 22.5908 518.426 21.6128 519.846 20.9767C521.266 20.3406 522.816 20.0893 524.496 20.2228C526.177 20.3563 527.667 20.8493 528.969 21.7018C530.271 22.5543 531.261 23.703 531.938 25.1478C532.615 26.5927 532.882 28.2083 532.74 29.9946C532.598 31.781 532.068 33.3332 531.15 34.6513C530.232 35.9694 529.041 36.9554 527.577 37.6095C526.135 38.2439 524.574 38.4944 522.894 38.3609ZM523.145 35.2028C524.081 35.2772 524.971 35.1232 525.814 34.7408C526.679 34.3602 527.402 33.7435 527.984 32.8909C528.565 32.0383 528.907 30.974 529.008 29.698C529.109 28.422 528.95 27.3286 528.53 26.4179C528.112 25.4858 527.517 24.7644 526.744 24.2535C525.972 23.7427 525.117 23.4501 524.182 23.3757C523.246 23.3014 522.356 23.4554 521.513 23.8377C520.69 24.2218 520.01 24.8418 519.471 25.6978C518.934 26.5325 518.614 27.5879 518.513 28.8639C518.363 30.7566 518.724 32.262 519.599 33.3801C520.496 34.4786 521.678 35.0862 523.145 35.2028Z" fill="#F5F5F5"/>
<path d="M540.899 30.6753C541.087 28.9147 541.615 27.3941 542.481 26.1135C543.368 24.8352 544.478 23.8917 545.808 23.283C547.163 22.6553 548.604 22.4231 550.131 22.5862C551.51 22.7335 552.679 23.1374 553.638 23.7977C554.621 24.439 555.377 25.1956 555.906 26.0674L556.178 23.5219L559.837 23.9128L557.964 41.4451L554.305 41.0541L554.583 38.445C553.88 39.2065 552.968 39.8064 551.849 40.2447C550.729 40.6829 549.491 40.8295 548.133 40.6844C546.627 40.5235 545.289 39.9944 544.119 39.097C542.951 38.1784 542.07 36.9901 541.475 35.5319C540.903 34.0548 540.711 32.436 540.899 30.6753ZM555.243 32.2721C555.372 31.063 555.23 29.9858 554.816 29.0404C554.423 28.0974 553.849 27.3495 553.092 26.7967C552.336 26.2439 551.491 25.9176 550.558 25.8179C549.625 25.7182 548.73 25.8586 547.874 26.2392C547.02 26.5985 546.291 27.1965 545.687 28.033C545.106 28.8506 544.751 29.8639 544.622 31.0731C544.493 32.2822 544.624 33.3689 545.014 34.3331C545.426 35.2997 546.009 36.0699 546.762 36.644C547.54 37.199 548.385 37.5253 549.297 37.6227C550.23 37.7224 551.125 37.582 551.981 37.2015C552.837 36.8209 553.556 36.2112 554.139 35.3724C554.746 34.5147 555.114 33.4812 555.243 32.2721Z" fill="#F5F5F5"/>
<path d="M574.265 43.7922C572.89 43.6096 571.685 43.2021 570.65 42.5697C569.639 41.919 568.873 41.1285 568.35 40.1983C567.831 39.247 567.621 38.2399 567.719 37.1769L571.462 37.6739C571.427 38.4225 571.693 39.0927 572.26 39.6845C572.851 40.258 573.633 40.6093 574.606 40.7385C575.621 40.8733 576.429 40.7868 577.029 40.4792C577.653 40.1532 578.006 39.6836 578.088 39.0703C578.175 38.4147 577.922 37.8862 577.33 37.4847C576.759 37.0861 575.822 36.6065 574.519 36.0462C573.255 35.5125 572.234 35.0218 571.454 34.5739C570.674 34.126 570.024 33.5124 569.503 32.7331C569.004 31.9566 568.83 30.9974 568.981 29.8554C569.105 28.9249 569.492 28.1155 570.143 27.4272C570.797 26.7177 571.661 26.2084 572.735 25.8991C573.83 25.5926 575.044 25.5278 576.376 25.7047C578.364 25.9687 579.893 26.6882 580.964 27.8634C582.058 29.0202 582.533 30.4713 582.387 32.2166L578.771 31.7364C578.811 30.9455 578.577 30.2795 578.068 29.7385C577.559 29.1974 576.818 28.8623 575.845 28.7331C574.893 28.6067 574.14 28.6896 573.584 28.9817C573.029 29.2738 572.712 29.716 572.634 30.3081C572.572 30.7733 572.689 31.187 572.985 31.5492C573.282 31.9113 573.66 32.2199 574.121 32.4748C574.585 32.7086 575.275 33.0261 576.19 33.4274C577.414 33.9342 578.404 34.4208 579.16 34.887C579.939 35.3349 580.581 35.9365 581.083 36.6918C581.585 37.4472 581.772 38.3867 581.645 39.5103C581.513 40.5043 581.12 41.356 580.466 42.0654C579.812 42.7749 578.948 43.2843 577.874 43.5936C576.821 43.9057 575.618 43.9719 574.265 43.7922Z" fill="#F5F5F5"/>
<path d="M604.844 38.984C605.147 37.2394 605.773 35.7566 606.721 34.5354C607.69 33.318 608.859 32.4491 610.227 31.9288C611.619 31.3911 613.082 31.2555 614.617 31.5219C615.752 31.719 616.822 32.1646 617.827 32.8589C618.857 33.5358 619.627 34.3406 620.136 35.2735L621.593 26.887L625.218 27.5166L621.167 50.8475L617.541 50.2179L617.996 47.601C617.261 48.3396 616.321 48.8909 615.175 49.2549C614.05 49.6225 612.815 49.6896 611.47 49.456C609.957 49.1932 608.635 48.574 607.506 47.5983C606.401 46.6053 605.599 45.3618 605.1 43.8678C604.627 42.3565 604.541 40.7285 604.844 38.984ZM619.052 41.5161C619.26 40.318 619.189 39.2338 618.838 38.2634C618.508 37.2967 617.983 36.5128 617.265 35.9116C616.546 35.3105 615.725 34.9297 614.8 34.7691C613.875 34.6085 612.973 34.6901 612.094 35.0138C611.219 35.3165 610.452 35.8655 609.795 36.6606C609.162 37.4385 608.741 38.4264 608.533 39.6245C608.325 40.8226 608.384 41.9155 608.711 42.9032C609.058 43.8946 609.589 44.7014 610.304 45.3235C611.043 45.9283 611.865 46.3091 612.769 46.4661C613.694 46.6267 614.596 46.5451 615.475 46.2214C616.354 45.8977 617.112 45.3364 617.748 44.5375C618.41 43.7213 618.844 42.7142 619.052 41.5161Z" fill="#F5F5F5"/>
<path d="M631.633 43.742C631.984 42.0065 632.65 40.5415 633.632 39.3471C634.635 38.1569 635.827 37.3206 637.208 36.8383C638.615 36.3392 640.071 36.242 641.577 36.5465C642.936 36.8214 644.062 37.3321 644.956 38.0788C645.875 38.8088 646.557 39.6324 647.003 40.5496L647.511 38.0404L651.117 38.7699L647.622 56.052L644.015 55.3225L644.535 52.7505C643.764 53.4434 642.801 53.9559 641.645 54.2881C640.49 54.6203 639.243 54.6511 637.905 54.3804C636.42 54.0802 635.137 53.4289 634.056 52.4266C632.978 51.4034 632.211 50.1383 631.754 48.6311C631.323 47.1072 631.282 45.4776 631.633 43.742ZM645.766 46.6658C646.007 45.4739 645.965 44.3881 645.641 43.4084C645.338 42.4329 644.836 41.6348 644.134 41.0141C643.432 40.3933 642.622 39.9899 641.702 39.8039C640.782 39.6178 639.878 39.6744 638.99 39.9737C638.107 40.2521 637.325 40.7797 636.646 41.5564C635.992 42.3164 635.544 43.2924 635.303 44.4842C635.062 45.6761 635.091 46.7702 635.39 47.7666C635.71 48.7673 636.218 49.5884 636.916 50.23C637.638 50.855 638.449 51.2584 639.348 51.4402C640.268 51.6263 641.172 51.5697 642.06 51.2704C642.947 50.9711 643.72 50.4309 644.379 49.65C645.063 48.8524 645.525 47.8576 645.766 46.6658Z" fill="#F5F5F5"/>
<path d="M678.656 48.0863L676.37 57.5749C676.216 58.2178 676.248 58.7194 676.469 59.0797C676.715 59.4243 677.201 59.684 677.927 59.8589L680.105 60.3835L679.393 63.339L676.593 62.6644C674.996 62.2797 673.862 61.6116 673.191 60.6601C672.521 59.7086 672.388 58.3929 672.793 56.713L675.079 47.2244L673.057 46.7373L673.754 43.8441L675.776 44.3312L676.802 40.0691L680.38 40.931L679.353 45.1931L683.522 46.1974L682.825 49.0906L678.656 48.0863Z" fill="#F5F5F5"/>
<path d="M705.554 60.552C705.385 61.1914 705.192 61.7581 704.973 62.2521L691.947 58.8161C691.691 60.2047 691.908 61.4313 692.598 62.4958C693.288 63.5603 694.293 64.2667 695.613 64.6149C697.511 65.1155 699.061 64.675 700.264 63.2934L704.07 64.2973C703.141 65.729 701.862 66.7706 700.234 67.4223C698.632 68.0588 696.83 68.1131 694.83 67.5853C693.2 67.1555 691.831 66.4082 690.721 65.3434C689.638 64.2635 688.9 62.9655 688.505 61.4495C688.137 59.9182 688.184 58.2759 688.647 56.5225C689.109 54.7692 689.865 53.3249 690.915 52.1897C691.99 51.0393 693.263 50.2718 694.732 49.8872C696.222 49.508 697.803 49.5388 699.473 49.9795C701.082 50.4039 702.424 51.1327 703.497 52.166C704.57 53.1992 705.289 54.4478 705.653 55.9117C706.022 57.355 705.989 58.9017 705.554 60.552ZM702.166 58.4669C702.488 57.1619 702.299 55.9977 701.598 54.9745C700.897 53.9512 699.876 53.2628 698.535 52.9091C697.318 52.5881 696.173 52.7052 695.1 53.2606C694.032 53.7953 693.242 54.701 692.729 55.9776L702.166 58.4669Z" fill="#F5F5F5"/>
<path d="M712.979 63.0409C713.486 61.3 714.279 59.8755 715.357 58.7675C716.462 57.6451 717.743 56.9074 719.201 56.5545C720.66 56.2016 722.198 56.2609 723.816 56.7322C725.864 57.3289 727.411 58.3128 728.455 59.6837C729.527 61.0402 730.035 62.6883 729.981 64.6279L726.203 63.527C726.14 62.5977 725.839 61.7991 725.301 61.1311C724.762 60.4631 723.981 59.98 722.957 59.6816C721.523 59.2639 720.227 59.4418 719.068 60.2153C717.936 60.9743 717.104 62.2652 716.573 64.0881C716.042 65.911 716.047 67.4568 716.589 68.7256C717.151 70.0003 718.149 70.8464 719.582 71.2641C721.61 71.8549 723.211 71.3547 724.386 69.7637L728.165 70.8646C727.172 72.4419 725.85 73.5457 724.2 74.176C722.556 74.7858 720.73 74.7983 718.723 74.2135C717.105 73.7421 715.776 72.966 714.735 71.8852C713.701 70.7838 713.016 69.4733 712.681 67.9537C712.372 66.4195 712.472 64.7819 712.979 63.0409Z" fill="#F5F5F5"/>
<path d="M749.542 64.6008C750.863 65.0233 751.953 65.6745 752.814 66.5546C753.695 67.4412 754.258 68.5172 754.503 69.7826C754.748 71.048 754.626 72.4426 754.139 73.9666L750.971 83.8722L747.527 82.7706L750.529 73.3831C751.01 71.8795 751.001 70.6112 750.503 69.5783C750.011 68.525 749.115 67.7904 747.815 67.3745C746.514 66.9585 745.348 67.0334 744.316 67.5992C743.311 68.1512 742.568 69.179 742.087 70.6826L739.084 80.0701L735.609 78.9587L740.981 62.1649L744.456 63.2763L743.841 65.1964C744.631 64.6876 745.525 64.3798 746.522 64.2732C747.54 64.1732 748.546 64.2823 749.542 64.6008Z" fill="#F5F5F5"/>
<path d="M767.424 89.787C765.853 89.238 764.556 88.3894 763.534 87.2412C762.518 86.0728 761.873 84.7175 761.599 83.1753C761.331 81.6129 761.496 79.9758 762.095 78.2639C762.686 76.5723 763.583 75.2021 764.785 74.1534C765.988 73.1048 767.357 72.4532 768.892 72.1988C770.427 71.9443 771.99 72.0951 773.581 72.651C775.172 73.207 776.489 74.0626 777.532 75.2179C778.574 76.3732 779.239 77.7355 779.527 79.305C779.815 80.8744 779.663 82.5049 779.072 84.1966C778.481 85.8883 777.574 87.255 776.351 88.2966C775.128 89.3382 773.726 89.9893 772.143 90.2498C770.588 90.4972 769.015 90.3429 767.424 89.787ZM768.469 86.7963C769.355 87.106 770.254 87.183 771.167 87.0276C772.101 86.8791 772.957 86.4664 773.736 85.7895C774.515 85.1125 775.115 84.1699 775.537 82.9615C775.96 81.7532 776.083 80.6552 775.909 79.6677C775.741 78.66 775.349 77.8109 774.731 77.1206C774.114 76.4302 773.362 75.9302 772.476 75.6206C771.59 75.3109 770.69 75.2338 769.777 75.3893C768.884 75.5519 768.068 75.9786 767.33 76.6696C766.598 77.3405 766.021 78.2801 765.599 79.4885C764.972 81.2809 764.94 82.8288 765.501 84.1323C766.09 85.4227 767.079 86.3107 768.469 86.7963Z" fill="#F5F5F5"/>
<path d="M796.448 74.7954L788.18 96.9852L784.762 95.7116L793.029 73.5217L796.448 74.7954Z" fill="#F5F5F5"/>
<path d="M804.845 103.71C803.298 103.097 802.037 102.196 801.063 101.007C800.096 99.7983 799.507 98.4177 799.296 96.8655C799.092 95.2935 799.325 93.6645 799.992 91.9786C800.652 90.3125 801.604 88.9802 802.849 87.9816C804.093 86.9831 805.488 86.3881 807.032 86.1967C808.577 86.0053 810.132 86.2199 811.699 86.8405C813.266 87.4611 814.547 88.3699 815.541 89.5669C816.536 90.7638 817.144 92.1523 817.368 93.7322C817.591 95.312 817.373 96.935 816.713 98.6011C816.053 100.267 815.091 101.596 813.826 102.586C812.562 103.577 811.134 104.17 809.542 104.366C807.978 104.549 806.412 104.331 804.845 103.71ZM806.012 100.765C806.885 101.11 807.78 101.224 808.699 101.106C809.638 100.996 810.51 100.619 811.316 99.9742C812.122 99.3297 812.76 98.4124 813.232 97.2224C813.703 96.0323 813.872 94.9404 813.738 93.9465C813.611 92.9328 813.254 92.0684 812.665 91.3533C812.076 90.6383 811.346 90.1079 810.473 89.7623C809.6 89.4166 808.705 89.3028 807.786 89.4208C806.887 89.5466 806.055 89.9397 805.288 90.5999C804.53 91.2403 803.915 92.1555 803.444 93.3455C802.744 95.1108 802.649 96.6561 803.156 97.9815C803.691 99.2949 804.643 100.223 806.012 100.765Z" fill="#F5F5F5"/>
<path d="M835.511 96.6214C836.767 97.1584 837.766 97.8875 838.509 98.8086C839.28 99.7185 839.78 100.664 840.011 101.644L841.017 99.2902L844.401 100.738L837.353 117.213C836.715 118.704 835.835 119.894 834.712 120.782C833.581 121.691 832.274 122.222 830.793 122.377C829.331 122.541 827.776 122.27 826.128 121.565C823.931 120.625 822.33 119.325 821.323 117.665C820.308 116.024 820.08 114.279 820.639 112.43L823.963 113.852C823.858 114.805 824.107 115.712 824.713 116.574C825.33 117.465 826.217 118.158 827.374 118.653C828.728 119.232 829.992 119.285 831.168 118.814C832.364 118.351 833.298 117.335 833.969 115.766L835.127 113.059C834.231 113.581 833.179 113.897 831.972 114.007C830.793 114.105 829.585 113.891 828.35 113.362C826.938 112.758 825.794 111.851 824.919 110.641C824.073 109.421 823.579 108.026 823.438 106.457C823.324 104.878 823.616 103.274 824.313 101.646C825.009 100.018 825.959 98.7188 827.163 97.7488C828.387 96.7871 829.724 96.2106 831.175 96.0192C832.654 95.8165 834.099 96.0173 835.511 96.6214ZM837.556 107.381C838.034 106.263 838.214 105.191 838.096 104.166C837.997 103.149 837.668 102.266 837.107 101.515C836.546 100.765 835.834 100.205 834.971 99.8362C834.108 99.467 833.212 99.3387 832.282 99.4513C831.36 99.5444 830.488 99.9021 829.665 100.525C828.87 101.136 828.233 102 827.755 103.118C827.277 104.236 827.083 105.313 827.173 106.35C827.283 107.395 827.614 108.302 828.166 109.072C828.747 109.831 829.458 110.39 830.302 110.751C831.165 111.12 832.061 111.249 832.991 111.136C833.921 111.023 834.788 110.652 835.591 110.021C836.423 109.379 837.078 108.499 837.556 107.381Z" fill="#F5F5F5"/>
<path d="M856.588 103.643C855.986 103.371 855.573 102.938 855.349 102.345C855.126 101.752 855.151 101.154 855.424 100.552C855.697 99.9493 856.129 99.5365 856.722 99.3132C857.315 99.0899 857.913 99.1146 858.515 99.3874C859.098 99.6515 859.502 100.08 859.725 100.673C859.948 101.266 859.923 101.863 859.651 102.466C859.378 103.068 858.945 103.481 858.352 103.704C857.759 103.928 857.171 103.907 856.588 103.643ZM857.257 106.511L849.983 122.572L846.66 121.068L853.934 105.006L857.257 106.511Z" fill="#F5F5F5"/>
<path d="M862.116 118.312C862.88 116.715 863.884 115.457 865.127 114.538C866.39 113.629 867.75 113.109 869.208 112.979C870.694 112.838 872.13 113.099 873.515 113.762C874.766 114.361 875.734 115.131 876.418 116.073C877.131 117.006 877.592 117.971 877.8 118.969L878.905 116.66L882.224 118.248L874.615 134.153L871.296 132.565L872.428 130.198C871.511 130.682 870.452 130.944 869.25 130.984C868.048 131.024 866.832 130.749 865.6 130.16C864.234 129.506 863.149 128.562 862.345 127.326C861.55 126.07 861.115 124.656 861.04 123.083C860.993 121.5 861.352 119.91 862.116 118.312ZM875.107 124.598C875.632 123.501 875.857 122.438 875.781 121.409C875.725 120.389 875.433 119.492 874.904 118.719C874.376 117.946 873.688 117.357 872.841 116.952C871.994 116.546 871.104 116.381 870.17 116.454C869.245 116.509 868.359 116.829 867.51 117.417C866.69 117.994 866.018 118.831 865.493 119.928C864.968 121.025 864.729 122.093 864.776 123.132C864.842 124.181 865.135 125.101 865.654 125.894C866.202 126.676 866.89 127.265 867.718 127.661C868.565 128.066 869.455 128.232 870.389 128.158C871.322 128.085 872.204 127.75 873.033 127.153C873.891 126.547 874.582 125.695 875.107 124.598Z" fill="#F5F5F5"/>
</svg>
